<?xml version="1.0" encoding="UTF-8"?> <svg xmlns="http://www.w3.org/2000/svg" id="Layer_1" data-name="Layer 1" viewBox="0 0 400 245"><defs><style>.cls-1{fill:#343433;}.cls-2{fill:#fefefe;}.cls-3{fill:#f4f5f6;}.cls-4{fill:#dedfdf;}.cls-5{fill:#d1d1d1;}.cls-6{fill:#d8d8d8;}.cls-7{fill:#b2b2b2;}</style></defs><title>onnx</title><path class="cls-1" d="M268.767,77.13059a1.49623,1.49623,0,0,1-1.48891-.92928q-12.09826-22.44869-24.26025-44.86188a1.88364,1.88364,0,0,1-.15245-1.67583,6.106,6.106,0,0,0-9.37206-6.96848,2.48924,2.48924,0,0,1-2.21982.45105q-23.83634-4.78523-47.67682-9.54122A1.65181,1.65181,0,0,1,182.09,12.29248a6.11544,6.11544,0,1,0-11.73184,3.45808h0q.02394.08129.05017.16191a2.06212,2.06212,0,0,1-.32054,2.04543q-18.95091,27.12639-37.84436,54.29245c-.51162.73507-1.01489,1.05456-1.76666.781a6.104,6.104,0,0,0-6.57277,5.25613,6.00581,6.00581,0,0,0,4.99157,6.87195q.11421.01809.22906.0318A1.63614,1.63614,0,0,1,130.67,86.46714q10.15411,25.09449,20.36775,50.165a2.53718,2.53718,0,0,1,.12113,1.7228,6.1238,6.1238,0,0,0,9.64146,6.60618,2.14991,2.14991,0,0,1,1.6445-.48343c3.95932.41139,7.92284.76953,11.88424,1.15584q13.01189,1.26651,26.02168,2.5414,11.73179,1.1496,23.46463,2.294a1.59647,1.59647,0,0,1,1.55574,1.07023,6.1238,6.1238,0,1,0,10.84846-5.62679,1.52444,1.52444,0,0,1-.02088-1.7604q15.50631-26.86744,30.9625-53.76306a1.657,1.657,0,0,1,1.62151-1.00548,6.127,6.127,0,1,0,.14353-12.25306Q268.84655,77.12943,268.767,77.13059ZM173.99906,28.66751q.87288-3.74737,1.73533-7.49682c.14408-.63275.33618-1.00863,1.15376-1.05872a5.26236,5.26236,0,0,0,3.90294-2.0371,1.44194,1.44194,0,0,1,1.69462-.51057q23.9679,4.80821,47.942,9.58194c.13155.0261.2558.09188.74445.27356-5.24988,2.296-10.16561,4.45215-15.08761,6.59675q-22.74309,9.90978-45.48938,19.81333c-.22971.10024-.46255.19526-.69539.29027-.48761.19838-.94807.65989-1.5119.17959-.52519-.44585-.13887-.93031-.03132-1.38973q2.815-12.12228,5.64244-24.24145Zm-3.44248-4.19843.25059.16706q-3.22634,13.80019-6.44852,27.6025a1.57349,1.57349,0,0,1-1.19757,1.31769,5.774,5.774,0,0,0-4.21625,5.17259,1.70194,1.70194,0,0,1-.83426,1.48475q-10.23238,5.988-20.43353,12.02726a2.82389,2.82389,0,0,1-.51371.11486ZM154.41858,132.179a11.61331,11.61331,0,0,1-.29445,1.13183l-6.89332-16.97439q-6.32844-15.58566-12.67776-31.163a2.08822,2.08822,0,0,1,.32159-2.54452,4.57332,4.57332,0,0,0,1.1381-3.50513,1.752,1.752,0,0,1,1.09006-1.87629c7.47385-4.37281,14.91637-8.79677,22.37874-13.18835.42076-.24745.84052-.81754,1.4482-.237.55026.52519,1.31038.76848,1.17046,1.869-.72566,5.74581-1.349,11.50417-2.00992,17.25834l-2.87972,25.06631q-1.39077,12.08159-2.792,24.16314Zm6.99773,3.80061a4.64325,4.64325,0,0,0-2.35764-1.56622c-.55338-.17124-.92927-.39782-.74133-.91987.59515-5.19348,1.17256-10.247,1.75413-15.29957q1.75415-15.23378,3.51348-30.46757c.81965-7.10318,1.68418-14.20218,2.42342-21.31373.14618-1.40957,1.24772-1.3678,2.01516-1.88256.78-.52415,1.10469.2579,1.4931.59515q25.40355,22.03207,50.7727,44.10176a2.36078,2.36078,0,0,1-.62648,3.738L163.0723,136.31058c-.67452.27877-1.135.35814-1.657-.32994Zm66.24767,8.02827a2.58417,2.58417,0,0,0-1.12558.97629c-.78726,1.64555-2.14464,1.444-3.56467,1.30307q-16.752-1.66746-33.50807-3.29945-12.62034-1.24251-25.24068-2.49337l-.09293-.27356c3.04049-1.2634,6.07681-2.53513,9.11939-3.79019q23.83739-9.82942,47.67057-19.67131c.898-.37275,1.45134-.04594,2.28351.24433,2.37016.829,2.42445,2.67818,2.6364,4.6213q1.15115,10.506,2.389,21.00153c.07.60241.05434,1.05033-.56692,1.38133Zm-2.02247-38.67127c-.09605.75177-.4448.96478-1.041,1.23624a1.4096,1.4096,0,0,1-1.73324-.38215q-6.0799-5.32818-12.19538-10.61249Q191.3399,78.77509,172.01,61.96988a4.22772,4.22772,0,0,1-1.03369-3.714c.261-.54294.91153-.592,1.40122-.80606q24.728-10.79313,49.46752-21.558c3.04154-1.325,6.09456-2.62285,9.11731-3.98856.85409-.38636,1.5192-.592,2.17908.3195a2.85357,2.85357,0,0,0,1.22894.84887c.57637.23284.8165.54816.685.93031-.58471,4.46364-1.14019,8.708-1.6988,12.94925q-1.9149,14.52378-3.83611,29.04548c-1.29576,9.78032-2.61449,19.55646-3.87892,29.341Zm6.66882,37.36089c-.35082-2.8787-.65988-5.31459-.94284-7.75368-.57428-4.95125-1.12037-9.90561-1.71132-14.85578-.16392-1.37407-.27878-2.49546,1.16732-3.50408a5.23735,5.23735,0,0,0,1.95148-5.12771c-.06265-.56383-.04908-.91883.46046-1.26548q14.35986-9.79911,28.69883-19.62642a2.98973,2.98973,0,0,1,.44687-.1065l-30.07081,52.23969Zm31.1922-62.34682a4.45424,4.45424,0,0,0-.72777,3.46233,1.60276,1.60276,0,0,1-.8405,1.8429Q246.525,96.17025,231.15344,106.741c-.33829.23179-.616.66511-1.18507.34248-.62648-.355-.40095-.86662-.33934-1.32813q3.08226-23.27668,6.18435-46.55128c1.065-8.03455,2.10182-16.07219,3.15744-24.10885.06892-.52206.18794-1.03682.3498-1.90449,1.9661,3.60745,3.77347,6.90167,5.55893,10.20528q9.2927,17.18943,18.58855,34.37573a2.059,2.059,0,0,1,.03443,2.57893Z"></path><path class="cls-2" d="M235.05428,34.60859c.13261-.3832-.10751-.69852-.6839-.93136a2.85354,2.85354,0,0,1-1.22895-.84888c-.65988-.91152-1.326-.70687-2.17908-.32054-3.02276,1.36676-6.07681,2.66461-9.1173,3.98856q-24.73536,10.77537-49.46648,21.56118c-.4897.213-1.14019.26207-1.40018.804a4.22765,4.22765,0,0,0,1.03369,3.715l38.6587,33.60831q6.10029,5.3031,12.19539,10.61249a1.40957,1.40957,0,0,0,1.73323.38111c.59725-.27147.946-.48343,1.04308-1.2352,1.2634-9.78346,2.58212-19.56064,3.87792-29.341q1.92532-14.52169,3.83611-29.04548c.55861-4.24228,1.113-8.4856,1.69879-12.94924Z"></path><path class="cls-3" d="M220.29035,109.83368Q194.90974,87.77549,169.51663,65.734c-.38946-.33829-.71418-1.12037-1.49415-.5962-.76743.51581-1.869.473-2.01516,1.88256-.73924,7.11154-1.60377,14.21055-2.42237,21.31478l-3.51449,30.46653c-.58158,5.05253-1.159,10.10609-1.75413,15.29956-.18794.52206.18794.74864.74133.91987a4.64327,4.64327,0,0,1,2.35763,1.56619c.52207.68807.98253.60872,1.657.32994q28.28952-11.68377,56.5895-23.34351a2.36076,2.36076,0,0,0,.62648-3.738Z"></path><path class="cls-4" d="M244.8795,44.00262c-1.78545-3.30466-3.59284-6.59783-5.55892-10.20528-.16079.86767-.28192,1.38343-.3498,1.90448q-1.58185,12.05338-3.15744,24.10885Q232.729,83.08737,229.629,106.362c-.0616.46046-.28815.97312.33933,1.32813.57009.32367.84679-.11068,1.18508-.34248l30.78082-21.08507a1.60277,1.60277,0,0,0,.84051-1.84291,4.45424,4.45424,0,0,1,.72777-3.46231,2.059,2.059,0,0,0-.03447-2.579Q254.144,61.20771,244.8795,44.00262Z"></path><path class="cls-5" d="M168.38688,54.90642c.56485.47924,1.02534.0167,1.514-.18064.23179-.094.46359-.19.69434-.29027q22.74523-9.90456,45.48941-19.81228c4.922-2.14463,9.83776-4.30179,15.08761-6.59675-.48865-.18168-.61286-.24745-.74445-.27356q-23.9721-4.78731-47.94205-9.58194a1.44194,1.44194,0,0,0-1.69462.51058,5.26242,5.26242,0,0,1-3.90294,2.036c-.81755.05115-1.00967.42809-1.15376,1.05978q-.85617,3.75155-1.73533,7.49682l-5.6435,24.24145c-.1065.45942-.49282.94389.03133,1.38974Zm57.45508,67.3252c-.212-1.94208-.26625-3.79228-2.6364-4.62131-.83112-.29026-1.38558-.61709-2.2835-.24537q-23.82171,9.868-47.66954,19.67237c-3.04258,1.255-6.0789,2.52678-9.11939,3.79018l.09292.27356,25.24069,2.49337,33.50806,3.29945c1.42.141,2.77738.34248,3.56467-1.30307a2.58441,2.58441,0,0,1,1.12558-.97629c.62125-.331.63691-.77892.567-1.38137q-1.22889-10.49683-2.389-21.00153Z"></path><path class="cls-6" d="M162.10124,66.2978c.13887-1.10051-.62125-1.3438-1.17151-1.869-.60768-.58054-1.02741-.01045-1.4482.237-7.46236,4.39158-14.90489,8.81554-22.37874,13.18834a1.75205,1.75205,0,0,0-1.09007,1.87629,4.57328,4.57328,0,0,1-1.13809,3.50513,2.08823,2.08823,0,0,0-.32159,2.54452q6.37959,15.56481,12.67777,31.163l6.89331,16.97434a11.60754,11.60754,0,0,0,.29444-1.13183q1.40227-12.08055,2.792-24.16315,1.443-12.53261,2.87969-25.06632c.66089-5.75314,1.28428-11.51252,2.00992-17.2573Z"></path><path class="cls-7" d="M233.23542,110.79741c-.50954.34769-.52416.70165-.46047,1.26547a5.23734,5.23734,0,0,1-1.95147,5.12667c-1.44612,1.00967-1.33126,2.13107-1.16734,3.50513.591,4.94915,1.13705,9.90457,1.71133,14.85582.28192,2.43908.592,4.87607.94285,7.75368l30.0708-52.23967a2.9885,2.9885,0,0,0-.44687.1065Q247.588,100.98783,233.23542,110.79741Zm-75.12481-49.977a1.70193,1.70193,0,0,0,.8353-1.48475,5.774,5.774,0,0,1,4.21517-5.1726,1.5735,1.5735,0,0,0,1.19761-1.31768q3.21277-13.80334,6.44955-27.6025l-.25058-.16706-33.3943,47.88566a2.82407,2.82407,0,0,0,.51371-.11486q10.21463-6.01623,20.43354-12.02622Z"></path><path class="cls-1" d="M252.34183,175.27991l-.03389-.00462v-.00064a4.78187,4.78187,0,0,0-2.0307-.11143c-1.58246.28877-2.02578.78445-2.02578,2.37123l-.00064,46.2139v1.24874c-.29122-.41685-.42607-.60283-.55415-.79308q-14.07959-21.02022-28.16528-42.0361a48.18089,48.18089,0,0,0-3.7394-5.31013,4.44126,4.44126,0,0,0-2.91618-1.72965c-1.41436-.12007-3.01959.29555-3.0171,1.8977q.04981,27.92391.01845,55.84907a1.70606,1.70606,0,0,0,.29062,1.09292,3.70518,3.70518,0,0,0,3.73448.74137c1.1379-.3719,1.45009-.87006,1.45009-2.322v-47.462c.2586.37006.3571.5092.45317.65086q14.90713,22.0737,29.81919,44.14377a25.28666,25.28666,0,0,0,3.0282,4.06512,3.42176,3.42176,0,0,0,3.67476.91132,1.6847,1.6847,0,0,0,1.394-1.88973q.00246-27.83525,0-55.67048a1.63541,1.63541,0,0,0-1.3798-1.85614Z"></path><path class="cls-1" d="M191.48745,175.29013l-.05551-.00748a4.72959,4.72959,0,0,0-2.11751-.1065c-1.51906.30355-1.9513.793-1.9513,2.33981v47.49463c-.28509-.40638-.43287-.60957-.57263-.81831l-29.40418-43.895a27.38714,27.38714,0,0,0-2.50608-3.46047,4.8926,4.8926,0,0,0-2.753-1.69265c-2.07073-.3633-3.13475.48766-3.13475,2.5393V212.213q0,10.26139-.00244,20.52271a1.83789,1.83789,0,0,0,.303,1.26289,3.78074,3.78074,0,0,0,3.75109.70007c1.117-.37559,1.3879-.8337,1.3879-2.35457q0-23.1088.00492-46.21884a1.91435,1.91435,0,0,1,.07513-.95564c.29923.10465.37251.38484.51228.59113q15.51979,22.953,31.0291,45.914a11.95221,11.95221,0,0,0,2.003,2.37986,3.35467,3.35467,0,0,0,3.41983.63175,1.7235,1.7235,0,0,0,1.3374-1.84355q-.02222-27.88263-.01233-55.766a1.56826,1.56826,0,0,0-1.31389-1.78678Z"></path><path class="cls-1" d="M132.65874,204.789c0-4.48875.06772-8.97873-.016-13.46565-.12744-6.83229-3.68273-11.91831-10.11416-14.2852a34.80042,34.80042,0,0,0-21.03806-.78509c-8.35871,2.14157-12.43369,7.64015-12.43369,16.25561V218.7356c.0012,7.12414,3.6341,12.4891,10.34755,14.84737a35.25718,35.25718,0,0,0,21.04914.57263c7.13767-1.87925,12.08146-6.8021,12.20278-15.36462.06588-4.66609.01168-9.33462.01168-14.002Zm-5.43946.49819v12.49219c0,7.29037-3.245,11.47246-10.3457,13.02172a26.49391,26.49391,0,0,1-14.08082-.5425,11.23375,11.23375,0,0,1-8.24908-11.30008q-.07578-13.69659-.00124-27.39312a11.31771,11.31771,0,0,1,8.82419-11.50206,26.454,26.454,0,0,1,15.95883.35281,11.25172,11.25172,0,0,1,7.8889,11.21881c.02217,4.5509.00492,9.10185.00492,13.65218Z"></path><path class="cls-1" d="M308.918,231.25483h.00067q-8.9055-12.79943-17.82574-25.58838a1.00863,1.00863,0,0,1-.02032-1.38175Q299.8118,191.69648,308.5,179.07254a11.93214,11.93214,0,0,0,.947-1.50242,1.45937,1.45937,0,0,0-.697-2.09971,3.39647,3.39647,0,0,0-4.35639.7574,21.78627,21.78627,0,0,0-1.50426,1.98884q-5.509,8.05145-10.99963,16.1152c-1.49626,2.19079-2.99624,4.37791-4.53061,6.62107-.16811-.22041-.28138-.35466-.37931-.49875l-12.25019-18.06525c-1.33429-1.96422-2.67233-3.92784-4.04911-5.86372a3.26775,3.26775,0,0,0-3.7462-1.367c-1.86384.47042-2.27825,1.53937-1.18406,3.13411q8.948,13.03838,17.91071,26.06746a.88789.88789,0,0,1-.01849,1.22348q-5.06874,7.27132-10.0926,14.57462l-7.90617,11.4307c-.97349,1.41619-.67179,2.38535.90516,3.0707,1.71791.74627,2.9488.298,4.20979-1.54736q6.48563-9.48861,12.96754-18.979c1.18469-1.73332,2.378-3.46048,3.59222-5.22643.141.16133.22538.24139.29.33495q8.13331,11.81548,16.26053,23.63466a7.43752,7.43752,0,0,0,1.253,1.50053,3.1895,3.1895,0,0,0,4.01708-.242C310.01031,233.34222,309.97152,232.769,308.918,231.25483Z"></path></svg> 